<svg width="1290" height="1256" viewBox="0 0 1290 1256" fill="none" xmlns="http://www.w3.org/2000/svg">
<path d="M1.13331 2.66662C0.0666463 5.46662 0.0666463 414.4 1.13331 417.2C1.79998 419.067 5.26665 419.333 27.8 419.333H53.6666V210V0.666624H27.8C5.93331 0.666624 1.79998 0.933291 1.13331 2.66662Z" fill="white"/>
<path d="M108.6 78.9334L109 157.333L135.4 157.733L161.667 158V184V210H135H108.333L108.6 314.267L109 418.667H135H161L161.4 340.267L161.667 262H188.333H215V338.933C215 381.333 215.533 416.8 216.067 417.733C217 418.933 223.133 419.333 242.467 419.067L267.667 418.667L268.067 314.267L268.333 210H242.467C220.067 210 216.467 209.733 215.8 207.867C215.4 206.667 215 195.067 215 181.867V158H241.667H268.333V79.3334V0.666698H188.333H108.333L108.6 78.9334ZM215 78.6667V104.667H188.333H161.667V78.6667V52.6667H188.333H215V78.6667Z" fill="white"/>
<path d="M323 79.3334V158L403.4 157.733L483.667 157.333L484.067 104.933L484.333 52.6667H511H537.667V131.333V210H484.333H431L431.267 288.267L431.667 366.667L476.333 367.067C500.867 367.333 536.733 367.2 556.067 366.667L591 365.733V183.2V0.666701H457H323V79.3334ZM430.733 78.9334C430.867 95.8667 430.6 104.667 429.667 104.667C429 104.667 416.733 104.8 402.733 104.8H377L376.6 80.4C376.467 67.0667 376.6 55.3334 377 54.4C377.4 52.9334 383.267 52.6667 403.933 52.9334L430.333 53.3334L430.733 78.9334ZM537 288.667V314.667L510.733 315.067L484.333 315.333V288.667V262L510.733 262.267L537 262.667V288.667Z" fill="white"/>
<path d="M645.667 131.333V262L672.067 261.733L698.333 261.333L698.733 156.933L699 52.6667H725.667H752.333V157.333V262H779.667H807V131.333V0.666653H726.333H645.667V131.333Z" fill="white"/>
<path d="M860.6 26.2667L861 52H1075H1289L1289.4 26.2667L1289.67 0.666664H1075H860.333L860.6 26.2667Z" fill="white"/>
<path d="M861.933 105.733C860.733 106.667 860.333 112.8 860.6 132.133L861 157.333L941.4 157.733L1021.67 158L1021.4 183.733L1021 209.333L941 210L861 210.667L860.6 236.267L860.333 262H967.667H1075V236V210H1101.67H1128.33L1128.6 222.267C1128.73 229.067 1128.73 238.267 1128.6 242.667C1128.33 247.067 1128.47 253.2 1129 256.267L1129.8 262H1209.8H1289.67L1289.4 183.6L1289 105.333L1209.8 104.933C1147.27 104.667 1130.33 104.933 1129.4 106.267C1128.87 107.2 1128.47 118.533 1128.47 131.333C1128.6 144.133 1128.6 155.467 1128.47 156.267C1128.33 157.6 1122.07 158 1101.67 158H1075V132.133C1075 109.733 1074.73 106.133 1072.87 105.467C1069.67 104.267 863.933 104.533 861.933 105.733ZM1236.33 184V210L1209.4 209.733L1182.33 209.333L1181.93 183.6L1181.67 158H1209H1236.33V184Z" fill="white"/>
<path d="M323 236V262H349.667H376.333V236V210H349.667H323V236Z" fill="white"/>
<path d="M323 340.667V365.867L347.533 366.267C360.867 366.533 372.867 366.533 374.2 366.267C376.067 365.867 376.333 362.933 376.333 340.533V315.333H349.667H323V340.667Z" fill="white"/>
<path d="M645.933 340.667L646.333 365.867L729 366.4C774.467 366.667 822.467 366.533 835.667 366.133L859.667 365.333L860.067 340.267L860.333 315.333H753H645.667L645.933 340.667Z" fill="white"/>
<path d="M913.667 340.667V365.867L938.467 366.267C952.067 366.533 964.333 366.267 965.8 365.733C968.2 364.8 968.333 363.2 968.333 340V315.333H941H913.667V340.667Z" fill="white"/>
<path d="M1021.93 340.667L1022.33 366.133H1047.4C1061.13 366.133 1073 366 1073.67 366C1074.47 366 1075 356.667 1075 340.667V315.333H1048.33H1021.67L1021.93 340.667Z" fill="white"/>
<path d="M1129.27 317.067C1128.87 318.267 1129.13 462.933 1129.67 470.267C1129.67 470.8 1153.53 471.467 1182.73 471.6L1235.67 472V498V524H1155.67H1075.67L1075 472L1074.33 420H994.333H914.333L913.933 497.6L913.667 575.333H1101.67H1289.67V445.333V315.333H1209.8C1145.67 315.333 1129.8 315.733 1129.27 317.067ZM1230.73 366.8L1236.33 367.733V393.467V419.333L1209.4 419.067L1182.33 418.667L1181.93 393.467C1181.67 375.067 1182.07 367.867 1183.13 367.2C1185.27 366 1223.4 365.6 1230.73 366.8ZM1021 498V524L994.733 524.267L968.333 524.533V497.867V471.333L994.733 471.6L1021 472V498Z" fill="white"/>
<path d="M323 524V628.667H349.667H376.333V524V419.333H349.667H323V524Z" fill="white"/>
<path d="M431.667 420.933C431.267 421.867 431.133 468.8 431.267 525.333L431.667 628H457.667H483.667L484.067 549.6L484.333 471.333H537.667H591L590.733 445.6L590.333 420L511.267 419.6C448.733 419.333 432.067 419.6 431.667 420.933Z" fill="white"/>
<path d="M645.667 445.333V471.333L726.067 471.6L806.333 472L806.733 523.6L807 575.333H833.667H860.333L860.067 497.6L859.667 420L752.733 419.6L645.667 419.333V445.333Z" fill="white"/>
<path d="M1.13331 473.6C0.733313 474.133 0.333313 508.533 0.333313 550.133C0.466646 610.533 0.866646 626.133 2.19998 627.2C3.39998 628.267 42.8666 628.533 135.8 628.4L267.667 628L268.067 602.4L268.333 576.667L161.4 576.4L54.3333 576V550V524L161.4 523.6L268.333 523.333V498V472.667H135.267C62.0666 472.667 1.66665 473.067 1.13331 473.6Z" fill="white"/>
<path d="M806.733 706.933L806.333 785.333L752.6 785.733L699 786L699.267 811.733L699.667 837.333H779.667H859.667V733.333V629.333L833.4 628.933L807 628.667L806.733 706.933Z" fill="white"/>
<path d="M914.6 629.6C914.067 630 913.667 677.2 913.667 734.267V838L940.733 837.733L967.667 837.333L968.067 734.133C968.333 652.4 968.067 630.667 966.733 629.733C964.6 628.533 915.8 628.267 914.6 629.6Z" fill="white"/>
<path d="M1022.6 629.6C1022.07 630 1021.67 641.733 1021.67 655.6V680.667L1128.73 680.933L1235.67 681.333L1236.07 706.933L1236.33 732.667L1129.4 732.933L1022.33 733.333V759.333V785.333H1155.67H1289V707.333V629.333L1156.2 628.933C1083.27 628.8 1023 629.067 1022.6 629.6Z" fill="white"/>
<path d="M8.73331 681.733L4.33331 682.133V812.8V943.333L84.7333 943.067L165 942.667L165.4 864.4L165.667 786L112.067 785.733L58.3333 785.333V759.333V733.333H138.333H218.333L219 785.333L219.667 837.333H299.667H379.667V760V682.667L196.333 682C95.5333 681.6 11 681.467 8.73331 681.733ZM326.333 735.6C326.733 737.333 326.867 749.2 326.733 762L326.333 785.333L302.333 785.733C289.133 785.867 277 785.733 275.4 785.333C272.333 784.667 272.333 784.4 272.333 759.467C272.333 745.733 272.733 734 273.267 733.6C273.667 733.067 285.667 732.667 299.8 732.667C325.4 732.667 325.667 732.667 326.333 735.6ZM111.4 839.867C112.333 842.267 112.333 885.733 111.4 888.133C110.867 889.6 105.4 890 84.3333 890H57.8L57.4 884.933C57.1333 882.267 57.1333 870.533 57.4 858.933L57.8 838H84.2C105.667 838 110.867 838.4 111.4 839.867Z" fill="white"/>
<path d="M433.667 760V838L540.733 837.733L647.667 837.333L648.067 811.6L648.333 786H568.333H488.333L488.067 734.267L487.667 682.667L460.733 682.267L433.667 682V760Z" fill="white"/>
<path d="M1021.67 942.667V1047.33H1048.33H1075L1074.73 1073.6L1074.33 1099.87H1048.33L1022.33 1100L1021.93 1177.6L1021.67 1255.33H1101.67H1181.67V1178V1100.67L1173.4 1100.53C1168.73 1100.53 1156.87 1100.27 1147 1100.13L1129 1099.73V1073.87V1048L1155.4 1047.6L1181.67 1047.33V942.667V838H1155.67C1135.8 838 1129.67 838.4 1129.67 839.6C1129.67 840.533 1129.67 875.067 1129.67 916.133C1129.67 957.333 1129.4 992 1128.87 993.2C1128.2 995.067 1124.73 995.333 1101.53 995.333H1075V916.667V838H1048.33H1021.67V942.667ZM1127.67 1152.67C1128.33 1153.73 1129 1195.6 1128.47 1202.93C1128.33 1204.27 1122.07 1204.67 1101.67 1204.67H1075V1178.93C1075 1164.67 1075.4 1152.67 1075.93 1152.27C1077.4 1150.67 1126.73 1151.2 1127.67 1152.67Z" fill="white"/>
<path d="M1236.33 1046.67V1255.33H1263H1289.67L1289.4 1047.07L1289 838.667L1262.73 838.267L1236.33 838V1046.67Z" fill="white"/>
<path d="M219.667 891.733C219.267 892.667 219.133 904.533 219.267 918L219.667 942.667H245.667H271.667V916.667V890.667L245.933 890.267C225.8 890 220.067 890.267 219.667 891.733Z" fill="white"/>
<path d="M327 916.667V943.333H353C378.867 943.333 379 943.333 379.667 940.267C380.067 938.667 380.2 926.8 380.067 914L379.667 890.667L353.4 890.267L327 890V916.667Z" fill="white"/>
<path d="M433.667 916.667V943.333L540.733 943.067L647.667 942.667V916.667V890.667L540.733 890.267L433.667 890V916.667Z" fill="white"/>
<path d="M699.933 890.933C699.4 891.333 699 973.6 699 1073.6V1255.33H833.667H968.333V1178C968.333 1117.07 967.933 1100.67 966.733 1100.53C965.8 1100.4 929.4 1100.13 886.067 1100.13L807 1099.87L806.733 1152L806.333 1204L779.4 1204.4L752.333 1204.67V1126V1047.33H806.333H860.333L860.067 968.933L859.667 890.667L780.2 890.267C736.6 890.133 700.333 890.4 699.933 890.933ZM806.733 968.933L806.333 994.667L779.4 995.067L752.333 995.333V969.333V943.333H779.667H807L806.733 968.933ZM913.4 1178.27L913.667 1204.67H887H860.333V1178.93C860.333 1164.67 860.733 1152.67 861.267 1152.13C861.8 1151.73 873.667 1151.47 887.533 1151.6L913 1152L913.4 1178.27Z" fill="white"/>
<path d="M913.933 916.267L914.333 942.667H941H967.667V916.667V890.667L940.6 890.267L913.667 890L913.933 916.267Z" fill="white"/>
<path d="M4.33331 1073.33V1151.33L84.7333 1151.07L165 1150.67L165.267 1128.67C165.4 1116.53 165.533 1105.07 165.533 1102.93L165.667 1099.33H192.333H219L219.267 1124.93L219.667 1150.67L326.733 1151.07L433.667 1151.33L433.4 1125.73L433 1100L423.667 1099.73C418.6 1099.6 382.333 1099.47 343.267 1099.47L272.333 1099.33L272.6 1073.6L273 1048L353.4 1047.6L433.667 1047.33V1021.33V995.333L326.733 995.6L219.667 996L219.267 1021.6L219 1047.33H192.333H165.667L165.4 1021.6L165 996L84.7333 995.6L4.33331 995.333V1073.33ZM112.067 1072.53C112.2 1086.13 111.933 1097.6 111.267 1098.27C110.067 1099.47 59.8 1100 57.9333 1098.8C57.4 1098.53 57.1333 1086.8 57.4 1072.8L57.8 1047.33L84.7333 1047.6L111.667 1048L112.067 1072.53Z" fill="white"/>
<path d="M488.333 1125.33V1255.33H568.333H648.333L648.067 1125.6L647.667 996L621.4 995.6L595 995.333V1100V1204.67H567.667H540.333V1100V995.333H514.333H488.333V1125.33Z" fill="white"/>
<path d="M913.667 1021.33V1047.33H941H968.333L968.067 1021.6L967.667 996L940.733 995.6L913.667 995.333V1021.33Z" fill="white"/>
<path d="M4.33331 1230V1255.33H219H433.667L433.4 1230.27L433 1205.33L218.733 1204.93L4.33331 1204.67V1230Z" fill="white"/>
</svg>
