<?xml version="1.0" standalone="no"?>
<!DOCTYPE svg PUBLIC "-//W3C//DTD SVG 20010904//EN"
 "http://www.w3.org/TR/2001/REC-SVG-20010904/DTD/svg10.dtd">
<svg version="1.0" xmlns="http://www.w3.org/2000/svg"
 width="1080.000000pt" height="1080.000000pt" viewBox="0 0 1080.000000 1080.000000"
 preserveAspectRatio="xMidYMid meet">

<g transform="translate(0.000000,1080.000000) scale(0.100000,-0.100000)"
fill="#000000" stroke="none">
<path d="M586 10165 c-8 -21 -8 -3088 0 -3109 5 -14 31 -16 200 -16 l194 0 0
1570 0 1570 -194 0 c-164 0 -195 -2 -200 -15z"/>
<path d="M1392 9593 l3 -588 198 -3 197 -2 0 -195 0 -195 -200 0 -200 0 2
-782 3 -783 195 0 195 0 3 588 2 587 200 0 200 0 0 -577 c0 -318 4 -584 8
-591 7 -9 53 -12 198 -10 l189 3 3 783 2 782 -194 0 c-168 0 -195 2 -200 16
-3 9 -6 96 -6 195 l0 179 200 0 200 0 0 590 0 590 -600 0 -600 0 2 -587z m798
2 l0 -195 -200 0 -200 0 0 195 0 195 200 0 200 0 0 -195z"/>
<path d="M3000 9590 l0 -590 603 2 602 3 3 393 2 392 200 0 200 0 0 -590 0
-590 -400 0 -400 0 2 -587 3 -588 335 -3 c184 -2 453 -1 598 3 l262 7 0 1369
0 1369 -1005 0 -1005 0 0 -590z m808 3 c1 -127 -1 -193 -8 -193 -5 0 -97 -1
-202 -1 l-193 0 -3 183 c-1 100 0 188 3 195 3 11 47 13 202 11 l198 -3 3 -192z
m797 -1573 l0 -195 -197 -3 -198 -2 0 200 0 200 198 -2 197 -3 0 -195z"/>
<path d="M5420 9200 l0 -980 198 2 197 3 3 783 2 782 200 0 200 0 0 -785 0
-785 205 0 205 0 0 980 0 980 -605 0 -605 0 0 -980z"/>
<path d="M7032 9988 l3 -193 1605 0 1605 0 3 193 2 192 -1610 0 -1610 0 2
-192z"/>
<path d="M7042 9392 c-9 -7 -12 -53 -10 -198 l3 -189 603 -3 602 -2 -2 -193
-3 -192 -600 -5 -600 -5 -3 -192 -2 -193 805 0 805 0 0 195 0 195 200 0 200 0
2 -92 c1 -51 1 -120 0 -153 -2 -33 -1 -79 3 -102 l6 -43 600 0 599 0 -2 588
-3 587 -594 3 c-469 2 -596 0 -603 -10 -4 -7 -7 -92 -7 -188 1 -96 1 -181 0
-187 -1 -10 -48 -13 -201 -13 l-200 0 0 194 c0 168 -2 195 -16 200 -24 9
-1567 7 -1582 -2z m2808 -587 l0 -195 -202 2 -203 3 -3 193 -2 192 205 0 205
0 0 -195z"/>
<path d="M3000 8415 l0 -195 200 0 200 0 0 195 0 195 -200 0 -200 0 0 -195z"/>
<path d="M3000 7630 l0 -189 184 -3 c100 -2 190 -2 200 0 14 3 16 25 16 193
l0 189 -200 0 -200 0 0 -190z"/>
<path d="M5422 7630 l3 -189 620 -4 c341 -2 701 -1 800 2 l180 6 3 188 2 187
-805 0 -805 0 2 -190z"/>
<path d="M7430 7630 l0 -189 186 -3 c102 -2 194 0 205 4 18 7 19 19 19 193 l0
185 -205 0 -205 0 0 -190z"/>
<path d="M8242 7630 l3 -191 188 0 c103 0 192 1 197 1 6 0 10 70 10 190 l0
190 -200 0 -200 0 2 -190z"/>
<path d="M9047 7807 c-3 -9 -1 -1094 3 -1149 0 -4 179 -9 398 -10 l397 -3 0
-195 0 -195 -600 0 -600 0 -5 390 -5 390 -600 0 -600 0 -3 -582 -2 -583 1410
0 1410 0 0 975 0 975 -599 0 c-481 0 -600 -3 -604 -13z m761 -373 l42 -7 0
-193 0 -194 -202 2 -203 3 -3 189 c-2 138 1 192 9 197 16 9 302 12 357 3z
m-1573 -984 l0 -195 -197 -2 -198 -2 0 200 0 199 198 -2 197 -3 0 -195z"/>
<path d="M3000 6255 l0 -785 200 0 200 0 0 785 0 785 -200 0 -200 0 0 -785z"/>
<path d="M3815 7028 c-3 -7 -4 -359 -3 -783 l3 -770 195 0 195 0 3 588 2 587
400 0 400 0 -2 193 -3 192 -593 3 c-469 2 -594 0 -597 -10z"/>
<path d="M5420 6845 l0 -195 603 -2 602 -3 3 -387 2 -388 200 0 200 0 -2 583
-3 582 -802 3 -803 2 0 -195z"/>
<path d="M586 6633 c-3 -4 -6 -262 -6 -574 1 -453 4 -570 14 -578 9 -8 305
-10 1002 -9 l989 3 3 192 2 193 -802 2 -803 3 0 195 0 195 803 3 802 2 0 190
0 190 -998 0 c-549 0 -1002 -3 -1006 -7z"/>
<path d="M6628 4883 l-3 -588 -403 -3 -402 -2 2 -193 3 -192 600 0 600 0 0
780 0 780 -197 3 -198 2 -2 -587z"/>
<path d="M7437 5463 c-4 -3 -7 -357 -7 -785 l0 -778 203 2 202 3 3 774 c2 613
0 776 -10 783 -16 9 -382 11 -391 1z"/>
<path d="M8247 5463 c-4 -3 -7 -91 -7 -195 l0 -188 803 -2 802 -3 3 -192 2
-193 -802 -2 -803 -3 0 -195 0 -195 1000 0 1000 0 0 585 0 585 -996 3 c-547 1
-999 -1 -1002 -5z"/>
<path d="M643 5072 l-33 -3 0 -980 0 -979 603 2 602 3 3 587 2 588 -402 2
-403 3 0 195 0 195 600 0 600 0 5 -390 5 -390 600 0 600 0 0 580 0 580 -1375
5 c-756 3 -1390 4 -1407 2z m2382 -404 c3 -13 4 -102 3 -198 l-3 -175 -180 -3
c-99 -1 -190 0 -202 3 -23 5 -23 7 -23 194 0 103 3 191 7 194 3 4 93 7 199 7
192 0 194 0 199 -22z m-1612 -782 c7 -18 7 -344 0 -362 -4 -11 -45 -14 -203
-14 l-199 0 -3 38 c-2 20 -2 108 0 195 l3 157 198 0 c161 0 200 -3 204 -14z"/>
<path d="M3830 4485 l0 -585 803 2 802 3 3 193 2 192 -600 0 -600 0 -2 388 -3
387 -202 3 -203 2 0 -585z"/>
<path d="M8240 3115 l0 -785 200 0 200 0 -2 -197 -3 -197 -195 0 -195 -1 -3
-582 -2 -583 600 0 600 0 0 580 0 580 -62 1 c-35 0 -124 2 -198 3 l-135 3 0
194 0 194 198 3 197 2 0 785 0 785 -195 0 c-149 0 -195 -3 -195 -12 0 -7 0
-266 0 -574 0 -309 -2 -569 -6 -578 -5 -14 -31 -16 -205 -16 l-199 0 0 590 0
590 -200 0 -200 0 0 -785z m795 -1575 c5 -8 10 -322 6 -377 -1 -10 -48 -13
-201 -13 l-200 0 0 193 c0 107 3 197 7 200 11 12 381 8 388 -3z"/>
<path d="M9850 2335 l0 -1565 200 0 200 0 -2 1562 -3 1563 -197 3 -198 2 0
-1565z"/>
<path d="M2225 3497 c-3 -7 -4 -96 -3 -197 l3 -185 195 0 195 0 0 195 0 195
-193 3 c-151 2 -194 0 -197 -11z"/>
<path d="M3030 3310 l0 -200 195 0 c194 0 195 0 200 23 3 12 4 101 3 197 l-3
175 -197 3 -198 2 0 -200z"/>
<path d="M3830 3310 l0 -200 803 2 802 3 0 195 0 195 -802 3 -803 2 0 -200z"/>
<path d="M5827 3503 c-4 -3 -7 -620 -7 -1370 l0 -1363 1010 0 1010 0 0 580 c0
457 -3 580 -12 581 -7 1 -280 3 -605 3 l-593 2 -2 -391 -3 -390 -202 -3 -203
-2 0 590 0 590 405 0 405 0 -2 588 -3 587 -596 3 c-327 1 -599 -1 -602 -5z
m801 -585 l-3 -193 -202 -3 -203 -2 0 195 0 195 205 0 205 0 -2 -192z m800
-1570 l2 -198 -200 0 -200 0 0 193 c0 107 3 197 7 201 4 3 93 5 197 4 l191 -3
3 -197z"/>
<path d="M7432 3313 l3 -198 200 0 200 0 0 195 0 195 -203 3 -202 2 2 -197z"/>
<path d="M610 2135 l0 -585 603 2 602 3 2 165 c1 91 2 177 2 193 l1 27 200 0
200 0 2 -192 3 -193 803 -3 802 -2 -2 192 -3 193 -70 2 c-38 1 -310 2 -603 2
l-532 1 2 193 3 192 603 3 602 2 0 195 0 195 -802 -2 -803 -3 -3 -192 -2 -193
-200 0 -200 0 -2 193 -3 192 -602 3 -603 2 0 -585z m808 6 c1 -102 -1 -188 -6
-193 -9 -9 -386 -13 -400 -4 -4 2 -6 90 -4 195 l3 191 202 -2 202 -3 3 -184z"/>
<path d="M4240 1745 l0 -975 600 0 600 0 -2 973 -3 972 -197 3 -198 2 0 -785
0 -785 -205 0 -205 0 0 785 0 785 -195 0 -195 0 0 -975z"/>
<path d="M7430 2525 l0 -195 205 0 205 0 -2 193 -3 192 -202 3 -203 2 0 -195z"/>
<path d="M610 960 l0 -190 1610 0 1610 0 -2 188 -3 187 -1607 3 -1608 2 0
-190z"/>
</g>
</svg>
